<?xml version="1.0" standalone="no"?>
<!DOCTYPE svg PUBLIC "-//W3C//DTD SVG 20010904//EN"
 "http://www.w3.org/TR/2001/REC-SVG-20010904/DTD/svg10.dtd">
<svg version="1.0" xmlns="http://www.w3.org/2000/svg"
 width="900.000000pt" height="900.000000pt" viewBox="0 0 900.000000 900.000000">

<g transform="translate(0.000000,900.000000) scale(0.100000,-0.100000)"
fill="#000000" stroke="none">
<path d="M0 4500 l0 -4500 4500 0 4500 0 0 4500 0 4500 -4500 0 -4500 0 0
-4500z m7290 1357 l0 -1432 -640 -640 -640 -640 0 1433 0 1432 -1430 0 c-786
0 -1430 3 -1430 7 0 5 285 293 632 640 l633 633 1437 0 1438 0 0 -1433z
m-2870 -2867 c787 0 1430 -3 1430 -8 0 -4 -285 -292 -633 -640 l-633 -633
-899 3 -900 4 -105 27 c-249 66 -441 178 -616 358 -162 169 -256 337 -322 579
l-26 95 -3 905 -4 904 638 638 638 638 3 -1435 2 -1435 1430 0z m2640 350 c0
-16 -7 -20 -30 -20 l-30 0 0 -90 c0 -89 0 -90 -25 -90 -25 0 -25 1 -25 90 0
88 -1 90 -23 90 -29 0 -37 7 -30 26 4 10 26 14 84 14 72 0 79 -2 79 -20z m87
-40 c15 -33 29 -60 33 -60 3 0 19 27 35 60 23 48 33 60 52 60 23 0 23 -2 23
-111 0 -109 0 -110 -22 -107 -20 3 -24 11 -28 52 l-5 50 -19 -52 c-10 -30 -24
-52 -33 -52 -8 0 -25 24 -38 53 l-24 52 0 -53 c-1 -50 -3 -53 -23 -50 -22 3
-23 8 -26 111 l-3 107 26 0 c23 0 30 -9 52 -60z m143 -950 l0 -640 -640 0
-640 0 0 640 0 640 640 0 640 0 0 -640z"/>
</g>
</svg>
